<?xml version="1.0" standalone="no"?>
<!DOCTYPE svg PUBLIC "-//W3C//DTD SVG 20010904//EN"
 "http://www.w3.org/TR/2001/REC-SVG-20010904/DTD/svg10.dtd">
<svg version="1.0" xmlns="http://www.w3.org/2000/svg"
 width="700.000000pt" height="700.000000pt" viewBox="0 0 700.000000 700.000000"
 preserveAspectRatio="xMidYMid meet">
<metadata>
Created by potrace 1.14, written by Peter Selinger 2001-2017
</metadata>
<g transform="translate(0.000000,700.000000) scale(0.100000,-0.100000)"
fill="#000000" stroke="none">
<path d="M1240 5367 c0 -20 8 -25 60 -35 123 -26 242 -91 297 -164 30 -39 63
-108 75 -158 36 -146 37 -172 34 -1525 -1 -726 -6 -1338 -10 -1360 -13 -67
-47 -177 -67 -214 -54 -101 -179 -182 -330 -213 -51 -10 -59 -15 -59 -35 0
-15 6 -23 18 -24 21 -1 2061 -1 2083 0 10 1 15 9 14 23 -1 18 -15 25 -106 47
-205 52 -338 143 -399 273 -16 35 -32 79 -35 98 -3 19 -8 43 -11 52 -3 9 -8
27 -11 40 -4 13 -8 736 -9 1608 -2 872 -3 1591 -3 1598 -1 9 -162 12 -771 12
l-770 0 0 -23z"/>
<path d="M3050 5367 c0 -22 5 -26 44 -31 65 -10 170 -51 234 -91 238 -149 352
-436 346 -874 -2 -124 -11 -268 -19 -280 -1 -4 -6 -28 -9 -56 -17 -127 -74
-277 -141 -367 -68 -92 -215 -193 -332 -228 -48 -15 -51 -23 -24 -83 10 -23
31 -71 46 -107 15 -36 40 -92 55 -125 14 -33 42 -94 60 -135 61 -137 220 -443
297 -573 164 -274 390 -534 564 -650 113 -75 267 -130 407 -145 37 -4 317 -7
622 -7 l555 0 3 26 c3 24 -2 28 -43 38 -187 47 -422 233 -632 501 -81 103
-179 226 -211 265 -119 144 -297 384 -423 570 -160 236 -293 460 -285 480 2 7
16 15 29 19 40 10 166 84 236 139 234 183 357 429 359 718 0 137 -20 259 -60
359 -111 277 -363 465 -756 564 -53 14 -113 27 -132 30 -19 3 -46 8 -60 11
-33 7 -144 23 -211 31 -30 3 -70 8 -89 10 -19 3 -124 7 -232 11 l-198 6 0 -26z"/>
</g>
</svg>
