<?xml version="1.0" encoding="UTF-8"?>
<svg id="Layer_2" data-name="Layer 2" xmlns="http://www.w3.org/2000/svg" viewBox="0 0 481.24 118.26">
  <defs>
    <style>
      .cls-1 {
        fill: #000;
        stroke-width: 0px;
      }
    </style>
  </defs>
  <g id="Logo">
    <g>
      <g id="R1">
        <path class="cls-1" d="M28.59,72.86V9.41H0v1c4.01.59,6.77,1.88,8.28,3.89,1.5,2.01,2.26,5.56,2.26,10.66v47.91c0,5.1-.75,8.65-2.26,10.66-1.5,2.01-4.26,3.3-8.28,3.89v1h41.26v-1c-4.51-.58-7.76-1.88-9.72-3.89-1.97-2.01-2.95-5.56-2.95-10.66Z"/>
        <path class="cls-1" d="M83.96,84.78c-2.63-1.67-4.87-3.64-6.71-5.89-10.28-11.2-17.68-20.98-22.2-29.35v-.25c9.61-3.51,14.42-9.74,14.42-18.69,0-11.29-7.23-18.02-21.7-20.19-4.18-.67-8.45-1-12.79-1v1c10.62,1.5,15.93,8.11,15.93,19.82,0,5.02-.63,9.11-1.88,12.29-1.25,3.18-3.6,5.44-7.02,6.77-1.76.75-3.26,1.21-4.51,1.38v.5c4.68,9.87,9.53,18.18,14.55,24.96,3.18,4.26,6.25,7.46,9.22,9.59,2.97,2.13,6.54,3.24,10.72,3.32,10.37,0,16.72-.08,19.06-.25v-1c-2.09-.33-4.45-1.34-7.09-3.01Z"/>
      </g>
      <g id="A1">
        <path class="cls-1" d="M100.45,54.18c1.84,0,3.41-.67,4.7-2.01,1.29-1.34,1.94-2.92,1.94-4.77s-.65-3.41-1.94-4.7c-1.3-1.3-2.87-1.94-4.7-1.94s-3.41.65-4.7,1.94c-1.3,1.3-1.94,2.86-1.94,4.7s.65,3.53,1.94,4.83c1.3,1.3,2.86,1.94,4.7,1.94Z"/>
        <path class="cls-1" d="M139.71,82.14c-3.18,0-4.77-1.84-4.77-5.52v-28.22c0-10.7-5.64-16.05-16.93-16.05-2.51,0-5.31.56-8.4,1.69-3.09,1.13-5.64,2.4-7.65,3.82v.38c11.54,0,17.31,3.64,17.31,10.91v27.46c0,4.18.98,7.36,2.95,9.53,1.96,2.18,4.79,3.26,8.47,3.26,3.26,0,5.98-.75,8.15-2.26,2.17-1.5,3.68-3.26,4.51-5.27v-.63c-1,.59-2.22.88-3.64.88Z"/>
        <path class="cls-1" d="M105.6,72.36c0-2.93.67-5.39,2.01-7.4,1.25-1.59,4.05-3.18,8.4-4.77v-.88c-9.95,2.34-16.85,4.31-20.69,5.89-1.09.42-2.22,1.65-3.39,3.7-1.17,2.05-1.76,4.5-1.76,7.34,0,3.76,1.19,6.9,3.57,9.41,2.38,2.51,5.71,3.76,9.97,3.76,3.26,0,6.15-.9,8.65-2.7s4.1-3.62,4.77-5.46v-.5c-1.17.75-2.72,1.13-4.64,1.13-4.6,0-6.9-3.18-6.9-9.53Z"/>
      </g>
      <g id="Y">
        <path class="cls-1" d="M162.03,39.76c0-2.84,2.05-4.51,6.15-5.02v-1h-31.73v1c2.51.33,4.47,1.21,5.89,2.63,1.42,1.42,2.84,3.89,4.26,7.4l18.69,44.52h.75l7.52-18.56-9.53-23.95c-1.34-3.43-2.01-5.77-2.01-7.02Z"/>
        <path class="cls-1" d="M157.64,108.36c-1.25,1.34-2.34,2.3-3.26,2.88-1.17-5.19-3.89-7.78-8.15-7.78-1.92,0-3.6.67-5.02,2.01-1.42,1.34-2.13,3.14-2.13,5.39s.77,4.05,2.32,5.39c1.55,1.34,3.36,2.01,5.46,2.01,6.19,0,10.95-4.26,14.3-12.79l-.88-.38c-.5.83-1.38,1.92-2.63,3.26Z"/>
        <path class="cls-1" d="M174.57,33.74v1c5.1.5,7.65,2.88,7.65,7.15,0,2.84-.63,5.73-1.88,8.65l1,.63c4.43-9.95,10.16-15.43,17.18-16.43v-1h-23.95Z"/>
      </g>
      <g id="M">
        <path class="cls-1" d="M224.53,82.14c-2.43-2.67-3.43-8.49-3.01-17.43h-1.25c-1.84,7.86-4.43,13.67-7.78,17.43-2.51,2.93-6.23,4.72-11.16,5.39v.88h35.11v-.88c-5.1-.33-9.07-2.13-11.91-5.39Z"/>
        <path class="cls-1" d="M206.34,9.41v1c3.84.42,7.4,1.92,10.66,4.51,3.09,2.51,6.02,6.65,8.78,12.42l29.1,61.95h.63l10.41-19.44-28.22-60.45h-31.35Z"/>
        <path class="cls-1" d="M305.79,83.4c-1.59-2.17-2.47-5.98-2.63-11.41l-1.76-46.53c-.17-5.27.5-8.97,2.01-11.1,1.5-2.13,4.35-3.45,8.53-3.95v-1h-29.35l2.38,62.58v3.64c-.08,4.1-.9,6.96-2.45,8.59-1.55,1.63-4.12,2.7-7.71,3.2v1h39.38v-1c-4.01-.5-6.82-1.84-8.4-4.01Z"/>
      </g>
      <g id="A2">
        <path class="cls-1" d="M325.48,54.18c1.84,0,3.41-.67,4.7-2.01,1.29-1.34,1.94-2.92,1.94-4.77s-.65-3.41-1.94-4.7c-1.3-1.3-2.87-1.94-4.7-1.94s-3.41.65-4.7,1.94c-1.3,1.3-1.94,2.86-1.94,4.7s.65,3.53,1.94,4.83,2.86,1.94,4.7,1.94Z"/>
        <path class="cls-1" d="M330.62,72.36c0-2.93.67-5.39,2.01-7.4,1.25-1.59,4.05-3.18,8.4-4.77v-.88c-9.95,2.34-16.85,4.31-20.69,5.89-1.09.42-2.22,1.65-3.39,3.7-1.17,2.05-1.76,4.5-1.76,7.34,0,3.76,1.19,6.9,3.57,9.41,2.38,2.51,5.71,3.76,9.97,3.76,3.26,0,6.14-.9,8.65-2.7s4.1-3.62,4.77-5.46v-.5c-1.17.75-2.72,1.13-4.64,1.13-4.6,0-6.9-3.18-6.9-9.53Z"/>
        <path class="cls-1" d="M364.73,82.14c-3.18,0-4.77-1.84-4.77-5.52v-28.22c0-10.7-5.64-16.05-16.93-16.05-2.51,0-5.31.56-8.4,1.69-3.1,1.13-5.64,2.4-7.65,3.82v.38c11.54,0,17.31,3.64,17.31,10.91v27.46c0,4.18.98,7.36,2.95,9.53,1.96,2.18,4.79,3.26,8.46,3.26,3.26,0,5.98-.75,8.15-2.26,2.17-1.5,3.68-3.26,4.51-5.27v-.63c-1,.59-2.22.88-3.64.88Z"/>
      </g>
      <g id="R2">
        <path class="cls-1" d="M391.32,77.25v-44.77l-.25-.25-21.45,6.9v.75c2.34,1.25,3.93,2.53,4.77,3.83.83,1.3,1.25,3.03,1.25,5.2v28.22c0,3.76-.48,6.33-1.44,7.71-.96,1.38-2.91,2.28-5.83,2.7v.88h31.35v-.88c-2.93-.42-5.06-1.36-6.4-2.82-1.34-1.46-2.01-3.95-2.01-7.46Z"/>
        <path class="cls-1" d="M413.77,34.93c-1.67-1.71-4.1-2.57-7.27-2.57-2.68,0-5.18,1.02-7.52,3.07-2.34,2.05-3.89,4.37-4.64,6.96v.5c1.76-3.09,3.8-4.64,6.15-4.64.58,0,.92.12,1,.38-1.09,1.09-1.63,2.72-1.63,4.89s.73,3.95,2.19,5.33c1.46,1.38,3.32,2.07,5.58,2.07,2.51,0,4.58-.82,6.21-2.45,1.63-1.63,2.45-3.83,2.45-6.58,0-2.93-.84-5.25-2.51-6.96Z"/>
      </g>
      <g id="K">
        <path class="cls-1" d="M454.9,40.63c0,2.26-.92,4.56-2.76,6.9l.75,1c3.68-3.68,7.36-6.52,11.04-8.53,3.84-2.42,8.49-4.18,13.92-5.27v-1h-29.6v1c4.43.67,6.65,2.63,6.65,5.89Z"/>
        <path class="cls-1" d="M470.08,79.64c-2.26-2.34-5.81-6.92-10.66-13.73-4.85-6.81-8.24-11.93-10.16-15.36l-10.03,10.53c1.76,3.6,4.12,7.63,7.09,12.1,2.97,4.47,5.83,8.17,8.59,11.1,2.93,3.01,6.73,4.51,11.41,4.51,7.19,0,12.17-.12,14.92-.38v-.88c-3.68-1.25-7.4-3.89-11.16-7.9Z"/>
        <path class="cls-1" d="M437.79,84.72c-1.05-1.46-1.57-3.99-1.57-7.59V17.68c0-1.34.13-7.15.38-17.43l-.25-.25-21.95,6.77v.75c2.34,1.17,3.93,2.45,4.77,3.82.83,1.38,1.25,3.16,1.25,5.33v60.45c0,3.85-.46,6.44-1.38,7.78-.92,1.34-2.84,2.22-5.77,2.63v.88h30.22v-.88c-2.76-.42-4.66-1.36-5.71-2.82Z"/>
      </g>
    </g>
  </g>
</svg>